<svg xmlns="http://www.w3.org/2000/svg" id="Layer_1" data-name="Layer 1" viewBox="0 0 200 43.15"><defs><style>.cls-1{fill:#fc0;}</style></defs><title>Artboard 1</title><path class="cls-1" d="M0,25.63V20.51H23.07l2.56-2.57V15.38H0v-9L6.41,0H33.32V5.13H10.25L7.69,7.69v2.56H33.32v9l-6.41,6.41ZM59,12.82l5.13-5.13V5.13h-18v7.69ZM38.45,25.63V0H71.77V9l-9,9H46.14v7.69ZM76.9,0h7.69V25.63H76.9Zm33.32,20.51,5.13-5.13V5.13H97.4V20.51ZM89.71,25.63V0H123V16.66l-9,9Zm38.45,0V0h33.32V5.13H135.85v5.12h21.79l-5.13,5.13H135.85v5.13h25.63v5.12Zm59-12.81,5.13-5.13V5.13H174.3v7.69ZM166.61,25.63V0h33.32V9l-3.84,3.84h-2.56l6.41,6.41v6.41h-7.69V20.51L189.69,18H174.3v7.69ZM138.07,37l2.48-2.48V33.24h-8.67V37Zm-9.91,6.19V30.76h16.1v4.33l-4.34,4.33h-8.05v3.72Zm18.58,0V30.76h3.72v9.91h12.38v2.48Zm18.58,0V30.76H169v9.91h6.2l2.48-2.48V30.76h3.71v8l-4.33,4.34Zm18.58,0V40.67H195l1.23-1.24V38.19H183.9V33.86l3.09-3.1h13v2.48H188.85l-1.24,1.24v1.23H200v4.34l-3.1,3.1Z"></path></svg>